<?xml version="1.0" encoding="UTF-8"?>
<svg width="48px" height="48px" viewBox="0 0 48 48" version="1.1" xmlns="http://www.w3.org/2000/svg" xmlns:xlink="http://www.w3.org/1999/xlink">
    <title>instagram_w</title>
    <g id="02_assets" stroke="none" stroke-width="1" fill="none" fill-rule="evenodd">
        <g id="00_logo" transform="translate(-1404.000000, -322.000000)">
            <g id="instagram_w" transform="translate(1404.000000, 322.000000)">
                <rect id="frame" x="0" y="0" width="48" height="48"></rect>
                <path d="M25.3975134,4.00063896 C28.0727956,4.00338732 29.3373309,4.01553059 30.4100903,4.0471477 L30.6644946,4.05511486 C30.7904799,4.05929055 30.9151077,4.06375827 31.0404847,4.06853545 L31.2928615,4.07850756 C31.5899226,4.0906351 31.8987072,4.10451064 32.2459744,4.12035543 C34.3747412,4.21744955 35.8286126,4.5555721 37.10076,5.05001379 C38.4159368,5.56104803 39.5312886,6.24491457 40.6432267,7.35677327 C41.7550854,8.46871136 42.438952,9.58406323 42.9500656,10.89924 C43.4444279,12.1713874 43.7825504,13.6252588 43.8796446,15.7540256 C43.8954894,16.1012928 43.9093649,16.4100774 43.9214924,16.7071388 L43.9314646,16.959516 C43.9362417,17.0848932 43.9407095,17.2095214 43.9448851,17.3355071 L43.9528523,17.5899124 C43.9844694,18.6626768 43.9966127,19.9272257 43.999361,22.6025458 L43.999962,23.6287128 L43.999962,23.6287128 L44,24.0000397 C44,24.1263568 43.9999875,24.2501046 43.999962,24.3713612 L43.999361,25.3975134 C43.9966127,28.0727956 43.9844694,29.3373309 43.9528523,30.4100903 L43.9448851,30.6644946 C43.9407095,30.7904799 43.9362417,30.9151077 43.9314646,31.0404847 L43.9214924,31.2928615 C43.9093649,31.5899226 43.8954894,31.8987072 43.8796446,32.2459744 C43.7825504,34.3747412 43.4444279,35.8286126 42.9500656,37.10076 C42.438952,38.4159368 41.7550854,39.5312886 40.6432267,40.6432267 C39.5312886,41.7550854 38.4159368,42.438952 37.10076,42.9500656 C35.8286126,43.4444279 34.3747412,43.7825504 32.2459744,43.8796446 C31.8987072,43.8954894 31.5899226,43.9093649 31.2928615,43.9214924 L31.0404847,43.9314646 C30.9151077,43.9362417 30.7904799,43.9407095 30.6644946,43.9448851 L30.4100903,43.9528523 C29.3373309,43.9844694 28.0727956,43.9966127 25.3975134,43.999361 L24.3713612,43.999962 L24.3713612,43.999962 L24.0000397,44 C23.8737208,44 23.7499711,43.9999875 23.6287128,43.999962 L22.6025458,43.999361 C19.9272257,43.9966127 18.6626768,43.9844694 17.5899124,43.9528523 L17.3355071,43.9448851 C17.2095214,43.9407095 17.0848932,43.9362417 16.959516,43.9314646 L16.7071388,43.9214924 C16.4100774,43.9093649 16.1012928,43.8954894 15.7540256,43.8796446 C13.6252588,43.7825504 12.1713874,43.4444279 10.89924,42.9500656 C9.58406323,42.438952 8.46871136,41.7550854 7.35677327,40.6432267 C6.24491457,39.5312886 5.56104803,38.4159368 5.05001379,37.10076 C4.5555721,35.8286126 4.21744955,34.3747412 4.12035543,32.2459744 C4.10451064,31.8987072 4.0906351,31.5899226 4.07850756,31.2928615 L4.06853545,31.0404847 C4.06375827,30.9151077 4.05929055,30.7904799 4.05511486,30.6644946 L4.0471477,30.4100903 C4.01553059,29.3373309 4.00338732,28.0727956 4.00063896,25.3975134 L4.00063896,22.6025458 C4.00338732,19.9272257 4.01553059,18.6626768 4.0471477,17.5899124 L4.05511486,17.3355071 C4.05929055,17.2095214 4.06375827,17.0848932 4.06853545,16.959516 L4.07850756,16.7071388 C4.0906351,16.4100774 4.10451064,16.1012928 4.12035543,15.7540256 C4.21744955,13.6252588 4.5555721,12.1713874 5.05001379,10.89924 C5.56104803,9.58406323 6.24491457,8.46871136 7.35677327,7.35677327 C8.46871136,6.24491457 9.58406323,5.56104803 10.89924,5.05001379 C12.1713874,4.5555721 13.6252588,4.21744955 15.7540256,4.12035543 C16.1012928,4.10451064 16.4100774,4.0906351 16.7071388,4.07850756 L16.959516,4.06853545 C17.0848932,4.06375827 17.2095214,4.05929055 17.3355071,4.05511486 L17.5899124,4.0471477 C18.6626768,4.01553059 19.9272257,4.00338732 22.6025458,4.00063896 Z M25.0745619,7.60392966 L22.9255017,7.60392966 C19.6807593,7.60613744 18.4698448,7.61995971 17.2570451,7.66363829 L17.0054264,7.67310723 C16.6681183,7.68631646 16.3199827,7.70189348 15.9182837,7.72022126 C13.9683035,7.8091382 12.9093186,8.13495527 12.2045725,8.40885121 C11.271024,8.77166408 10.6047821,9.20505477 9.90495811,9.90495811 C9.20505477,10.6047821 8.77166408,11.271024 8.40885121,12.2045725 C8.13495527,12.9093186 7.8091382,13.9683035 7.72022126,15.9182837 C7.70189348,16.3199827 7.68631646,16.6681183 7.67310723,17.0054264 L7.66363829,17.2570451 C7.61995971,18.4698448 7.60613744,19.6807593 7.60392966,22.9255017 L7.60392966,25.0745619 C7.60613744,28.319257 7.61995971,29.5301593 7.66363829,30.7429559 L7.67310723,30.9945741 C7.68631646,31.3318817 7.70189348,31.6800173 7.72022126,32.0817163 C7.8091382,34.0316965 8.13495527,35.0906814 8.40885121,35.7954275 C8.77166408,36.728976 9.20513416,37.3952179 9.90495811,38.0950419 C10.6047821,38.7949452 11.271024,39.2283359 12.2045725,39.5911488 C12.9093186,39.8650447 13.9683035,40.1908618 15.9182837,40.2797787 C16.4203507,40.3026885 16.8387294,40.3213001 17.256895,40.3363617 L17.5084365,40.3449786 C18.6462684,40.3818916 19.9042522,40.3940148 22.925425,40.3960703 L25.0746397,40.3960703 C28.095775,40.3940148 29.3537776,40.3818916 30.4916001,40.3449786 L30.743139,40.3363617 C31.1612994,40.3213001 31.5796682,40.3026885 32.0817163,40.2797787 C34.0316965,40.1908618 35.0906814,39.8650447 35.7954275,39.5911488 C36.728976,39.2283359 37.3952179,38.7949452 38.0950419,38.0950419 C38.7949452,37.3952179 39.2283359,36.728976 39.5911488,35.7954275 C39.8650447,35.0906814 40.1908618,34.0316965 40.2797787,32.0817163 C40.2981065,31.6800173 40.3136835,31.3318817 40.3268928,30.9945741 L40.3363617,30.7429559 C40.3800403,29.5301593 40.3938626,28.319257 40.3960703,25.0745619 L40.3960703,22.9255017 C40.3938626,19.6807593 40.3800403,18.4698448 40.3363617,17.2570451 L40.3268928,17.0054264 C40.3136835,16.6681183 40.2981065,16.3199827 40.2797787,15.9182837 C40.1908618,13.9683035 39.8650447,12.9093186 39.5911488,12.2045725 C39.2283359,11.271024 38.7949452,10.6047821 38.0950419,9.90495811 C37.3952179,9.20505477 36.728976,8.77166408 35.7954275,8.40885121 C35.0906814,8.13495527 34.0316965,7.8091382 32.0817163,7.72022126 C31.6800173,7.70189348 31.3318817,7.68631646 30.9945741,7.67310723 L30.7429559,7.66363829 C29.5301593,7.61995971 28.319257,7.60613744 25.0745619,7.60392966 Z M24.0000397,13.7297362 C29.6721466,13.7297362 34.2702638,18.3278534 34.2702638,24.0000397 C34.2702638,29.6721466 29.6721466,34.2702638 24.0000397,34.2702638 C18.3278534,34.2702638 13.7297362,29.6721466 13.7297362,24.0000397 C13.7297362,18.3278534 18.3278534,13.7297362 24.0000397,13.7297362 Z M24.0000397,17.3333333 C20.3180845,17.3333333 17.3333333,20.3180845 17.3333333,24.0000397 C17.3333333,27.6819155 20.3180845,30.6666667 24.0000397,30.6666667 C27.6819155,30.6666667 30.6666667,27.6819155 30.6666667,24.0000397 C30.6666667,20.3180845 27.6819155,17.3333333 24.0000397,17.3333333 Z M34.6760268,10.9239304 C36.0015243,10.9239304 37.0760696,11.9984757 37.0760696,13.3239732 C37.0760696,14.6494708 36.0015243,15.7239367 34.6760268,15.7239367 C33.3506086,15.7239367 32.2760633,14.6494708 32.2760633,13.3239732 C32.2760633,11.9984757 33.3506086,10.9239304 34.6760268,10.9239304 Z" id="shape" fill="#FFFFFF"></path>
            </g>
        </g>
    </g>
</svg>