<?xml version="1.0" encoding="UTF-8"?>
<svg width="48px" height="48px" viewBox="0 0 48 48" version="1.1" xmlns="http://www.w3.org/2000/svg" xmlns:xlink="http://www.w3.org/1999/xlink">
    <title>twitter_w</title>
    <g id="02_assets" stroke="none" stroke-width="1" fill="none" fill-rule="evenodd">
        <g id="00_logo" transform="translate(-1348.000000, -322.000000)">
            <g id="twitter_w" transform="translate(1348.000000, 322.000000)">
                <rect id="frame" x="0" y="0" width="48" height="48"></rect>
                <path d="M16.56,40.252 C31.648,40.252 39.904,27.74 39.904,16.908 C39.904,16.556 39.904,16.204 39.888,15.852 C41.488,14.7 42.88,13.244 43.984,11.596 C42.512,12.252 40.928,12.684 39.264,12.892 C40.96,11.884 42.256,10.268 42.88,8.348 C41.296,9.292 39.536,9.964 37.664,10.332 C36.16,8.732 34.032,7.74 31.68,7.74 C27.152,7.74 23.472,11.42 23.472,15.948 C23.472,16.588 23.552,17.212 23.68,17.82 C16.864,17.484 10.816,14.204 6.768,9.244 C6.064,10.46 5.664,11.868 5.664,13.372 C5.664,16.22 7.12,18.732 9.312,20.204 C7.968,20.156 6.704,19.788 5.6,19.18 C5.6,19.212 5.6,19.244 5.6,19.292 C5.6,23.26 8.432,26.588 12.176,27.34 C11.488,27.532 10.768,27.628 10.016,27.628 C9.488,27.628 8.976,27.58 8.48,27.484 C9.52,30.748 12.56,33.116 16.144,33.18 C13.328,35.388 9.792,36.7 5.952,36.7 C5.296,36.7 4.64,36.668 4,36.588 C7.616,38.892 11.936,40.252 16.56,40.252" id="shape" fill="#FFFFFF" fill-rule="nonzero"></path>
            </g>
        </g>
    </g>
</svg>