<?xml version="1.0" encoding="UTF-8"?>
<svg width="24px" height="24px" viewBox="0 0 24 24" version="1.1" xmlns="http://www.w3.org/2000/svg" xmlns:xlink="http://www.w3.org/1999/xlink">
    <title>plus</title>
    <g id="02_assets" stroke="none" stroke-width="1" fill="none" fill-rule="evenodd">
        <g id="00_logo" transform="translate(-1567.000000, -110.000000)">
            <g id="plus" transform="translate(1567.000000, 110.000000)">
                <rect id="frame" x="0" y="0" width="24" height="24"></rect>
                <path d="M11.9960938,19.0703125 C12.5664062,19.0703125 13.0351562,18.5859375 13.0351562,18.0546875 L13.0351562,13.40625 L17.5898438,13.40625 C18.1367188,13.40625 18.6132812,12.9375 18.6132812,12.3671875 C18.6132812,11.8046875 18.1367188,11.328125 17.5898438,11.328125 L13.0351562,11.328125 L13.0351562,6.6796875 C13.0351562,6.1328125 12.5664062,5.6640625 11.9960938,5.6640625 C11.4335938,5.6640625 10.9648438,6.1328125 10.9648438,6.6796875 L10.9648438,11.328125 L6.41015625,11.328125 C5.87890625,11.328125 5.38671875,11.8046875 5.38671875,12.3671875 C5.38671875,12.9375 5.87890625,13.40625 6.41015625,13.40625 L10.9648438,13.40625 L10.9648438,18.0546875 C10.9648438,18.5859375 11.4335938,19.0703125 11.9960938,19.0703125 Z" id="shape" fill="#E0E0FF" fill-rule="nonzero"></path>
            </g>
        </g>
    </g>
</svg>